<svg width="166" height="59" viewBox="0 0 166 59" fill="none" xmlns="http://www.w3.org/2000/svg">
<line x1="1.27693" y1="2.04929" x2="166" y2="2.04929" stroke="#333333" stroke-width="3"/>
<line x1="1.27693" y1="2.04929" x2="166" y2="2.04929" stroke="#333" stroke-width="3"/>
<line x1="9.43847" y1="2" x2="9.43847" y2="17.493" stroke="#333333"/>
<line x1="16.4615" y1="2" x2="16.4615" y2="17.493" stroke="#333333"/>
<line x1="23.4846" y1="2" x2="23.4846" y2="17.493" stroke="#333333"/>
<line x1="30.5077" y1="2" x2="30.5077" y2="17.493" stroke="#333333"/>
<line x1="37.5308" y1="2" x2="37.5308" y2="17.493" stroke="#333333"/>
<line x1="44.5538" y1="2" x2="44.5538" y2="17.493" stroke="#333333"/>
<line x1="51.5769" y1="2" x2="51.5769" y2="17.493" stroke="#333333"/>
<line x1="58.6" y1="2" x2="58.6" y2="17.493" stroke="#333333"/>
<line x1="65.6231" y1="2" x2="65.6231" y2="17.493" stroke="#333333"/>
<line x1="72.6462" y1="2" x2="72.6462" y2="17.493" stroke="#333333"/>
<line x1="79.6692" y1="2" x2="79.6692" y2="17.493" stroke="#333333"/>
<line x1="86.6923" y1="2" x2="86.6923" y2="17.493" stroke="#333333"/>
<line x1="93.7154" y1="2" x2="93.7154" y2="17.493" stroke="#333333"/>
<line x1="100.738" y1="2" x2="100.738" y2="17.493" stroke="#333333"/>
<line x1="107.762" y1="2" x2="107.762" y2="17.493" stroke="#333333"/>
<line x1="114.785" y1="2" x2="114.785" y2="17.493" stroke="#333333"/>
<line x1="121.808" y1="2" x2="121.808" y2="17.493" stroke="#333333"/>
<line x1="128.831" y1="2" x2="128.831" y2="17.493" stroke="#333333"/>
<line x1="135.854" y1="2" x2="135.854" y2="17.493" stroke="#333333"/>
<line x1="142.877" y1="2" x2="142.877" y2="17.493" stroke="#333333"/>
<line x1="149.9" y1="2" x2="149.9" y2="17.493" stroke="#333333"/>
<line x1="156.923" y1="2" x2="156.923" y2="17.493" stroke="#333333"/>
<line x1="164.723" y1="56.9507" y2="56.9507" stroke="#333333" stroke-width="3"/>
<line x1="164.723" y1="56.9507" y2="56.9507" stroke="#333333" stroke-width="3"/>
<line x1="156.562" y1="57" x2="156.562" y2="41.507" stroke="#333333"/>
<line x1="149.538" y1="57" x2="149.538" y2="41.507" stroke="#333333"/>
<line x1="142.515" y1="57" x2="142.515" y2="41.507" stroke="#333333"/>
<line x1="135.492" y1="57" x2="135.492" y2="41.507" stroke="#333333"/>
<line x1="128.469" y1="57" x2="128.469" y2="41.507" stroke="#333333"/>
<line x1="121.446" y1="57" x2="121.446" y2="41.507" stroke="#333333"/>
<line x1="114.423" y1="57" x2="114.423" y2="41.507" stroke="#333333"/>
<line x1="107.4" y1="57" x2="107.4" y2="41.507" stroke="#333333"/>
<line x1="100.377" y1="57" x2="100.377" y2="41.507" stroke="#333333"/>
<line x1="93.3539" y1="57" x2="93.3539" y2="41.507" stroke="#333333"/>
<line x1="86.3308" y1="57" x2="86.3308" y2="41.507" stroke="#333333"/>
<line x1="79.3077" y1="57" x2="79.3077" y2="41.507" stroke="#333333"/>
<line x1="72.2846" y1="57" x2="72.2846" y2="41.507" stroke="#333333"/>
<line x1="65.2615" y1="57" x2="65.2615" y2="41.507" stroke="#333333"/>
<line x1="58.2385" y1="57" x2="58.2385" y2="41.507" stroke="#333333"/>
<line x1="51.2154" y1="57" x2="51.2154" y2="41.507" stroke="#333333"/>
<line x1="44.1923" y1="57" x2="44.1923" y2="41.507" stroke="#333333"/>
<line x1="37.1692" y1="57" x2="37.1692" y2="41.507" stroke="#333333"/>
<line x1="30.1461" y1="57" x2="30.1461" y2="41.507" stroke="#333333"/>
<line x1="23.1231" y1="57" x2="23.1231" y2="41.507" stroke="#333333"/>
<line x1="16.1" y1="57" x2="16.1" y2="41.507" stroke="#333333"/>
<line x1="9.07692" y1="57" x2="9.07692" y2="41.507" stroke="#333333"/>
</svg>
