<svg width="85" height="124" viewBox="0 0 85 124" fill="none" xmlns="http://www.w3.org/2000/svg">
<path d="M25.827 3.28296L60.6215 11.162" stroke="#333333" stroke-width="3"/>
<ellipse cx="23.316" cy="3.28293" rx="3.58707" ry="3.28293" fill="#333333"/>
<ellipse cx="60.6215" cy="11.8186" rx="3.58707" ry="3.28293" fill="#333333"/>
<path d="M26.903 10.8337L61.6976 18.7127" stroke="#333333" stroke-width="3"/>
<ellipse cx="24.3921" cy="10.8337" rx="3.58707" ry="3.28293" fill="#333333"/>
<ellipse cx="61.6976" cy="19.3693" rx="3.58707" ry="3.28293" fill="#333333"/>
<path d="M27.9792 17.3995L62.7737 25.2786" stroke="#333333" stroke-width="3"/>
<ellipse cx="25.4682" cy="17.3995" rx="3.58707" ry="3.28293" fill="#333333"/>
<ellipse cx="62.7738" cy="25.9352" rx="3.58707" ry="3.28293" fill="#333333"/>
<path d="M29.0553 23.9654L63.8499 31.8444" stroke="#333333" stroke-width="3"/>
<ellipse cx="26.5444" cy="23.9654" rx="3.58707" ry="3.28293" fill="#333333"/>
<ellipse cx="63.8499" cy="32.501" rx="3.58707" ry="3.28293" fill="#333333"/>
<path d="M30.1314 30.5312L64.926 38.4103" stroke="#333333" stroke-width="3"/>
<ellipse cx="27.6205" cy="30.5313" rx="3.58707" ry="3.28293" fill="#333333"/>
<ellipse cx="64.926" cy="39.0669" rx="3.58707" ry="3.28293" fill="#333333"/>
<path d="M22.2398 35.1273L57.0344 43.0064" stroke="#333333" stroke-width="3"/>
<ellipse cx="19.7289" cy="35.1274" rx="3.58707" ry="3.28293" fill="#333333"/>
<ellipse cx="57.0344" cy="43.663" rx="3.58707" ry="3.28293" fill="#333333"/>
<path d="M14.3483 39.7235L49.1429 47.6025" stroke="#333333" stroke-width="3"/>
<ellipse cx="11.8373" cy="39.7235" rx="3.58707" ry="3.28293" fill="#333333"/>
<ellipse cx="49.1429" cy="48.2591" rx="3.58707" ry="3.28293" fill="#333333"/>
<path d="M11.8374 46.2893L46.632 54.1684" stroke="#333333" stroke-width="3"/>
<ellipse cx="9.32639" cy="46.2893" rx="3.58707" ry="3.28293" fill="#333333"/>
<ellipse cx="46.6319" cy="54.825" rx="3.58707" ry="3.28293" fill="#333333"/>
<path d="M20.4463 55.4815L55.2409 63.3606" stroke="#333333" stroke-width="3"/>
<ellipse cx="17.9354" cy="55.4815" rx="3.58707" ry="3.28293" fill="#333333"/>
<ellipse cx="55.2409" cy="64.0172" rx="3.58707" ry="3.28293" fill="#333333"/>
<path d="M26.903 63.0323L61.6976 70.9113" stroke="#333333" stroke-width="3"/>
<ellipse cx="24.3921" cy="63.0323" rx="3.58707" ry="3.28293" fill="#333333"/>
<ellipse cx="61.6976" cy="71.5679" rx="3.58707" ry="3.28293" fill="#333333"/>
<path d="M33.3597 70.583L68.1543 78.462" stroke="#333333" stroke-width="3"/>
<ellipse cx="30.8488" cy="70.583" rx="3.58707" ry="3.28293" fill="#333333"/>
<ellipse cx="68.1543" cy="79.1186" rx="3.58707" ry="3.28293" fill="#333333"/>
<path d="M39.8165 78.1338L74.611 86.0128" stroke="#333333" stroke-width="3"/>
<ellipse cx="37.3055" cy="78.1338" rx="3.58707" ry="3.28293" fill="#333333"/>
<ellipse cx="74.611" cy="86.6694" rx="3.58707" ry="3.28293" fill="#333333"/>
<path d="M46.2732 85.6845L81.0678 93.5635" stroke="#333333" stroke-width="3"/>
<ellipse cx="43.7623" cy="85.6845" rx="3.58707" ry="3.28293" fill="#333333"/>
<ellipse cx="81.0677" cy="94.2201" rx="3.58707" ry="3.28293" fill="#333333"/>
<path d="M36.2294 92.2504L71.024 100.129" stroke="#333333" stroke-width="3"/>
<ellipse cx="33.7185" cy="92.2504" rx="3.58707" ry="3.28293" fill="#333333"/>
<ellipse cx="71.024" cy="100.786" rx="3.58707" ry="3.28293" fill="#333333"/>
<path d="M26.1856 98.8162L60.9802 106.695" stroke="#333333" stroke-width="3"/>
<ellipse cx="23.6747" cy="98.8162" rx="3.58707" ry="3.28293" fill="#333333"/>
<ellipse cx="60.9802" cy="107.352" rx="3.58707" ry="3.28293" fill="#333333"/>
<path d="M16.1418 105.382L50.9364 113.261" stroke="#333333" stroke-width="3"/>
<ellipse cx="13.6309" cy="105.382" rx="3.58707" ry="3.28293" fill="#333333"/>
<ellipse cx="50.9364" cy="113.918" rx="3.58707" ry="3.28293" fill="#333333"/>
<path d="M6.09805 111.948L40.8926 119.827" stroke="#333333" stroke-width="3"/>
<ellipse cx="3.58707" cy="111.948" rx="3.58707" ry="3.28293" fill="#333333"/>
<ellipse cx="40.8926" cy="120.484" rx="3.58707" ry="3.28293" fill="#333333"/>
</svg>
