<svg width="165" height="41" viewBox="0 0 165 41" fill="none" xmlns="http://www.w3.org/2000/svg">
<line x1="164.723" y1="38.9507" y2="38.9507" stroke="#333333" stroke-width="3"/>
<line x1="164.723" y1="38.9507" y2="38.9507" stroke="#333333" stroke-width="3"/>
<line x1="156.562" y1="39" x2="156.562" y2="23.507" stroke="#333333"/>
<line x1="149.538" y1="39" x2="149.538" y2="23.507" stroke="#333333"/>
<line x1="142.515" y1="39" x2="142.515" y2="23.507" stroke="#333333"/>
<line x1="135.492" y1="39" x2="135.492" y2="23.507" stroke="#333333"/>
<line x1="128.469" y1="39" x2="128.469" y2="23.507" stroke="#333333"/>
<line x1="121.446" y1="39" x2="121.446" y2="23.507" stroke="#333333"/>
<line x1="114.423" y1="39" x2="114.423" y2="23.507" stroke="#333333"/>
<line x1="107.4" y1="39" x2="107.4" y2="23.507" stroke="#333333"/>
<line x1="100.377" y1="39" x2="100.377" y2="23.507" stroke="#333333"/>
<line x1="93.3539" y1="39" x2="93.3539" y2="23.507" stroke="#333333"/>
<line x1="86.3308" y1="39" x2="86.3308" y2="23.507" stroke="#333333"/>
<line x1="79.3077" y1="39" x2="79.3077" y2="23.507" stroke="#333333"/>
<line x1="72.2846" y1="39" x2="72.2846" y2="23.507" stroke="#333333"/>
<line x1="65.2615" y1="39" x2="65.2615" y2="23.507" stroke="#333333"/>
<line x1="58.2385" y1="39" x2="58.2385" y2="23.507" stroke="#333333"/>
<line x1="51.2154" y1="39" x2="51.2154" y2="23.507" stroke="#333333"/>
<line x1="44.1923" y1="39" x2="44.1923" y2="23.507" stroke="#333333"/>
<line x1="37.1692" y1="39" x2="37.1692" y2="23.507" stroke="#333333"/>
<line x1="30.1461" y1="39" x2="30.1461" y2="23.507" stroke="#333333"/>
<line x1="23.1231" y1="39" x2="23.1231" y2="23.507" stroke="#333333"/>
<line x1="16.1" y1="39" x2="16.1" y2="23.507" stroke="#333333"/>
<line x1="9.0769" y1="39" x2="9.07691" y2="23.507" stroke="#333333"/>
<line x1="7" y1="9.5" x2="52" y2="9.5" stroke="black"/>
<line x1="115" y1="9.5" x2="160" y2="9.5" stroke="black"/>
<path d="M64.4013 3.27273V12H63.3445V4.38068H63.2933L61.1626 5.79545V4.72159L63.3445 3.27273H64.4013ZM66.9112 12V11.233L69.7919 8.07955C70.13 7.71023 70.4084 7.3892 70.6271 7.11648C70.8459 6.84091 71.0078 6.58239 71.1129 6.34091C71.2209 6.09659 71.2749 5.84091 71.2749 5.57386C71.2749 5.26705 71.201 5.00142 71.0533 4.77699C70.9084 4.55256 70.7095 4.37926 70.4567 4.2571C70.2038 4.13494 69.9197 4.07386 69.6044 4.07386C69.2692 4.07386 68.9766 4.14347 68.7266 4.28267C68.4794 4.41903 68.2876 4.6108 68.1513 4.85795C68.0178 5.10511 67.951 5.39489 67.951 5.72727H66.9453C66.9453 5.21591 67.0632 4.76705 67.299 4.38068C67.5348 3.99432 67.8558 3.69318 68.2621 3.47727C68.6712 3.26136 69.13 3.15341 69.6385 3.15341C70.1499 3.15341 70.603 3.26136 70.9979 3.47727C71.3928 3.69318 71.7024 3.98437 71.9268 4.35085C72.1513 4.71733 72.2635 5.125 72.2635 5.57386C72.2635 5.89489 72.2053 6.20881 72.0888 6.51562C71.9751 6.8196 71.7763 7.15909 71.4922 7.53409C71.2109 7.90625 70.8203 8.3608 70.3203 8.89773L68.3601 10.9943V11.0625H72.4169V12H66.9112ZM77.0234 12.1193C76.3814 12.1193 75.8345 11.9446 75.3828 11.5952C74.9311 11.2429 74.5859 10.733 74.3473 10.0653C74.1087 9.39489 73.9893 8.58523 73.9893 7.63636C73.9893 6.69318 74.1087 5.88778 74.3473 5.22017C74.5888 4.54972 74.9354 4.03835 75.3871 3.68608C75.8416 3.33097 76.3871 3.15341 77.0234 3.15341C77.6598 3.15341 78.2038 3.33097 78.6555 3.68608C79.1101 4.03835 79.4567 4.54972 79.6953 5.22017C79.9368 5.88778 80.0575 6.69318 80.0575 7.63636C80.0575 8.58523 79.9382 9.39489 79.6996 10.0653C79.4609 10.733 79.1158 11.2429 78.6641 11.5952C78.2124 11.9446 77.6655 12.1193 77.0234 12.1193ZM77.0234 11.1818C77.6598 11.1818 78.1541 10.875 78.5064 10.2614C78.8587 9.64773 79.0348 8.77273 79.0348 7.63636C79.0348 6.88068 78.9538 6.23722 78.7919 5.70597C78.6328 5.17472 78.4027 4.76989 78.1016 4.49148C77.8033 4.21307 77.4439 4.07386 77.0234 4.07386C76.3928 4.07386 75.8999 4.38494 75.5447 5.0071C75.1896 5.62642 75.0121 6.50284 75.0121 7.63636C75.0121 8.39205 75.0916 9.03409 75.2507 9.5625C75.4098 10.0909 75.6385 10.4929 75.9368 10.7685C76.2379 11.044 76.6001 11.1818 77.0234 11.1818ZM85.2053 12V3.27273H88.1541C88.8388 3.27273 89.3984 3.39631 89.8331 3.64347C90.2706 3.88778 90.5945 4.21875 90.8047 4.63636C91.0149 5.05398 91.12 5.51989 91.12 6.03409C91.12 6.5483 91.0149 7.01562 90.8047 7.43608C90.5973 7.85653 90.2763 8.19176 89.8416 8.44176C89.407 8.68892 88.8501 8.8125 88.1712 8.8125H86.0575V7.875H88.1371C88.6058 7.875 88.9822 7.79403 89.2663 7.6321C89.5504 7.47017 89.7564 7.25142 89.8842 6.97585C90.0149 6.69744 90.0803 6.38352 90.0803 6.03409C90.0803 5.68466 90.0149 5.37216 89.8842 5.09659C89.7564 4.82102 89.549 4.60511 89.2621 4.44886C88.9751 4.28977 88.5945 4.21023 88.12 4.21023H86.2621V12H85.2053ZM92.8224 12V3.27273H95.8736C96.4815 3.27273 96.983 3.37784 97.3778 3.58807C97.7727 3.79545 98.0668 4.07528 98.2599 4.42756C98.4531 4.77699 98.5497 5.16477 98.5497 5.59091C98.5497 5.96591 98.483 6.27557 98.3494 6.51989C98.2188 6.7642 98.0455 6.95739 97.8295 7.09943C97.6165 7.24148 97.3849 7.34659 97.1349 7.41477V7.5C97.402 7.51705 97.6705 7.6108 97.9403 7.78125C98.2102 7.9517 98.4361 8.19602 98.6179 8.5142C98.7997 8.83239 98.8906 9.22159 98.8906 9.68182C98.8906 10.1193 98.7912 10.5128 98.5923 10.8622C98.3935 11.2116 98.0795 11.4886 97.6506 11.6932C97.2216 11.8977 96.6634 12 95.9759 12H92.8224ZM93.8793 11.0625H95.9759C96.6662 11.0625 97.1563 10.929 97.446 10.6619C97.7386 10.392 97.8849 10.0653 97.8849 9.68182C97.8849 9.38636 97.8097 9.11364 97.6591 8.86364C97.5085 8.6108 97.294 8.40909 97.0156 8.25852C96.7372 8.10511 96.4077 8.02841 96.027 8.02841H93.8793V11.0625ZM93.8793 7.10795H95.8395C96.1577 7.10795 96.4446 7.04545 96.7003 6.92045C96.9588 6.79545 97.1634 6.61932 97.3139 6.39205C97.4673 6.16477 97.544 5.89773 97.544 5.59091C97.544 5.20739 97.4105 4.8821 97.1435 4.61506C96.8764 4.34517 96.4531 4.21023 95.8736 4.21023H93.8793V7.10795Z" fill="#FC1483"/>
</svg>
