<svg width="188" height="79" viewBox="0 0 188 79" fill="none" xmlns="http://www.w3.org/2000/svg">
<line x1="24.0714" y1="44.1701" x2="2.07143" y2="65.1701" stroke="#333333" stroke-width="6"/>
<ellipse cx="42" cy="26.5" rx="31" ry="26.5" fill="#333333"/>
<ellipse cx="42" cy="27" rx="24" ry="21" fill="white"/>
<line x1="23.2769" y1="22.0493" x2="188" y2="22.0493" stroke="#333333" stroke-width="3"/>
<line x1="23.2769" y1="22.0493" x2="188" y2="22.0493" stroke="#333333" stroke-width="3"/>
<line x1="31.4385" y1="22" x2="31.4385" y2="37.493" stroke="#FC1483"/>
<line x1="38.4615" y1="22" x2="38.4615" y2="37.493" stroke="#333333"/>
<line x1="45.4846" y1="22" x2="45.4846" y2="37.493" stroke="#333333"/>
<line x1="52.5077" y1="22" x2="52.5077" y2="37.493" stroke="#FC1483"/>
<line x1="59.5308" y1="22" x2="59.5308" y2="37.493" stroke="#FC1483"/>
<line x1="66.5538" y1="22" x2="66.5538" y2="37.493" stroke="#333333"/>
<line x1="73.5769" y1="22" x2="73.5769" y2="37.493" stroke="#333333"/>
<line x1="80.6" y1="22" x2="80.6" y2="37.493" stroke="#333333"/>
<line x1="87.6231" y1="22" x2="87.6231" y2="37.493" stroke="#333333"/>
<line x1="94.6462" y1="22" x2="94.6462" y2="37.493" stroke="#333333"/>
<line x1="101.669" y1="22" x2="101.669" y2="37.493" stroke="#333333"/>
<line x1="108.692" y1="22" x2="108.692" y2="37.493" stroke="#333333"/>
<line x1="115.715" y1="22" x2="115.715" y2="37.493" stroke="#333333"/>
<line x1="122.738" y1="22" x2="122.738" y2="37.493" stroke="#333333"/>
<line x1="129.762" y1="22" x2="129.762" y2="37.493" stroke="#333333"/>
<line x1="136.785" y1="22" x2="136.785" y2="37.493" stroke="#333333"/>
<line x1="143.808" y1="22" x2="143.808" y2="37.493" stroke="#333333"/>
<line x1="150.831" y1="22" x2="150.831" y2="37.493" stroke="#333333"/>
<line x1="157.854" y1="22" x2="157.854" y2="37.493" stroke="#333333"/>
<line x1="164.877" y1="22" x2="164.877" y2="37.493" stroke="#333333"/>
<line x1="171.9" y1="22" x2="171.9" y2="37.493" stroke="#333333"/>
<line x1="178.923" y1="22" x2="178.923" y2="37.493" stroke="#333333"/>
<line x1="186.723" y1="76.9507" x2="22" y2="76.9507" stroke="#333333" stroke-width="3"/>
<line x1="186.723" y1="76.9507" x2="22" y2="76.9507" stroke="#333333" stroke-width="3"/>
<line x1="178.562" y1="77" x2="178.562" y2="61.507" stroke="#333333"/>
<line x1="171.538" y1="77" x2="171.538" y2="61.507" stroke="#333333"/>
<line x1="164.515" y1="77" x2="164.515" y2="61.507" stroke="#333333"/>
<line x1="157.492" y1="77" x2="157.492" y2="61.507" stroke="#333333"/>
<line x1="150.469" y1="77" x2="150.469" y2="61.507" stroke="#333333"/>
<line x1="143.446" y1="77" x2="143.446" y2="61.507" stroke="#333333"/>
<line x1="136.423" y1="77" x2="136.423" y2="61.507" stroke="#333333"/>
<line x1="129.4" y1="77" x2="129.4" y2="61.507" stroke="#333333"/>
<line x1="122.377" y1="77" x2="122.377" y2="61.507" stroke="#333333"/>
<line x1="115.354" y1="77" x2="115.354" y2="61.507" stroke="#333333"/>
<line x1="108.331" y1="77" x2="108.331" y2="61.507" stroke="#333333"/>
<line x1="101.308" y1="77" x2="101.308" y2="61.507" stroke="#333333"/>
<line x1="94.2846" y1="77" x2="94.2846" y2="61.507" stroke="#333333"/>
<line x1="87.2615" y1="77" x2="87.2615" y2="61.507" stroke="#333333"/>
<line x1="80.2385" y1="77" x2="80.2385" y2="61.507" stroke="#333333"/>
<line x1="73.2154" y1="77" x2="73.2154" y2="61.507" stroke="#333333"/>
<line x1="66.1923" y1="77" x2="66.1923" y2="61.507" stroke="#333333"/>
<line x1="59.1692" y1="77" x2="59.1692" y2="61.507" stroke="#333333"/>
<line x1="52.1461" y1="77" x2="52.1461" y2="61.507" stroke="#333333"/>
<line x1="45.1231" y1="77" x2="45.1231" y2="61.507" stroke="#333333"/>
<line x1="38.1" y1="77" x2="38.1" y2="61.507" stroke="#FC1483"/>
<line x1="31.0769" y1="77" x2="31.0769" y2="61.507" stroke="#333333"/>
</svg>
