<svg width="91" height="83" viewBox="0 0 91 83" fill="none" xmlns="http://www.w3.org/2000/svg">
<path d="M3.92804 39.3158C5.67384 26.6266 17.0485 7.32612 47.7913 3.74438C77.2518 0.312063 89.6906 37.6516 87.0719 49.3008C84.4532 60.95 72.9309 83.1249 47.7913 78.6316C22.6518 74.1384 18.1127 50.5489 20.2949 39.3158C22.4772 28.0827 34.0431 20.29 44.1906 21.5301C52.7014 22.5702 68.0863 23.0903 70.705 39.3158C73.2254 54.932 60.8849 60.5339 52.3741 58.6617" stroke="#333333"/>
<ellipse cx="4.2554" cy="37.1316" rx="4.2554" ry="4.05639" fill="#333333"/>
<ellipse cx="8.18344" cy="26.5226" rx="4.2554" ry="4.05639" fill="#333333"/>
<ellipse cx="16.6942" cy="16.5376" rx="4.2554" ry="4.05639" fill="#333333"/>
<ellipse cx="29.7877" cy="8.42481" rx="4.2554" ry="4.05639" fill="#333333"/>
<ellipse cx="46.1547" cy="4.05639" rx="4.2554" ry="4.05639" fill="#333333"/>
<ellipse cx="62.5216" cy="4.68044" rx="4.2554" ry="4.05639" fill="#333333"/>
<ellipse cx="73.6511" cy="12.7932" rx="4.2554" ry="4.05639" fill="#333333"/>
<ellipse cx="82.1619" cy="24.6504" rx="4.2554" ry="4.05639" fill="#333333"/>
<ellipse cx="86.7446" cy="40.8759" rx="4.2554" ry="4.05639" fill="#333333"/>
<ellipse cx="86.0899" cy="57.1015" rx="4.2554" ry="4.05639" fill="#333333"/>
<ellipse cx="77.5791" cy="68.9586" rx="4.2554" ry="4.05639" fill="#333333"/>
<ellipse cx="66.4496" cy="77.0714" rx="4.2554" ry="4.05639" fill="#333333"/>
<ellipse cx="50.7374" cy="78.9436" rx="4.2554" ry="4.05639" fill="#333333"/>
<ellipse cx="35.0252" cy="74.5752" rx="4.2554" ry="4.05639" fill="#333333"/>
<ellipse cx="25.205" cy="64.5902" rx="4.2554" ry="4.05639" fill="#333333"/>
<ellipse cx="20.6223" cy="48.9887" rx="4.2554" ry="4.05639" fill="#333333"/>
<ellipse cx="21.277" cy="36.5075" rx="4.2554" ry="4.05639" fill="#333333"/>
<ellipse cx="29.7877" cy="26.5226" rx="4.2554" ry="4.05639" fill="#333333"/>
<ellipse cx="45.5" cy="20.906" rx="4.2554" ry="4.05639" fill="#333333"/>
<ellipse cx="61.2122" cy="25.2744" rx="4.2554" ry="4.05639" fill="#333333"/>
<ellipse cx="69.723" cy="37.1316" rx="4.2554" ry="4.05639" fill="#333333"/>
<ellipse cx="67.1043" cy="53.3571" rx="4.2554" ry="4.05639" fill="#333333"/>
<ellipse cx="52.7014" cy="57.7256" rx="4.2554" ry="4.05639" fill="#333333"/>
</svg>
