<svg width="71" height="115" viewBox="0 0 71 115" fill="none" xmlns="http://www.w3.org/2000/svg">
<ellipse cx="13.126" cy="6.26238" rx="6.56303" ry="6.26238" fill="#333333"/>
<ellipse cx="29.2353" cy="23.9109" rx="6.56303" ry="6.26238" fill="#333333"/>
<ellipse cx="45.3445" cy="41.5594" rx="6.56303" ry="6.26238" fill="#333333"/>
<ellipse cx="35.7983" cy="62.6238" rx="6.56303" ry="6.26238" fill="#333333"/>
<ellipse cx="26.2521" cy="83.6881" rx="6.56303" ry="6.26238" fill="#333333"/>
<ellipse cx="45.3445" cy="96.2129" rx="6.56303" ry="6.26238" fill="#333333"/>
<ellipse cx="64.437" cy="108.738" rx="6.56303" ry="6.26238" fill="#333333"/>
<ellipse cx="6.56303" cy="35.297" rx="6.56303" ry="6.26238" fill="#333333"/>
<ellipse cx="57.8739" cy="68.8862" rx="6.56303" ry="6.26238" fill="#333333"/>
<line y1="-0.5" x2="14.0195" y2="-0.5" transform="matrix(0.723484 0.690341 -0.723484 0.690341 15.5126 10.2475)" stroke="#333333"/>
<line y1="-0.5" x2="14.0195" y2="-0.5" transform="matrix(0.723484 0.690341 -0.723484 0.690341 32.2185 27.3267)" stroke="#333333"/>
<line y1="-0.5" x2="13.8576" y2="-0.5" transform="matrix(0.818043 0.575156 -0.611195 0.79148 29.2352 85.9653)" stroke="#333333"/>
<line y1="-0.5" x2="13.8576" y2="-0.5" transform="matrix(0.818043 0.575156 -0.611195 0.79148 47.7311 98.4901)" stroke="#333333"/>
<line y1="-0.5" x2="14.4267" y2="-0.5" transform="matrix(-0.496278 0.868164 -0.887047 -0.461679 44.1512 46.6832)" stroke="#333333"/>
<line y1="-0.5" x2="14.4267" y2="-0.5" transform="matrix(-0.496278 0.868164 -0.887047 -0.461679 32.2185 68.8861)" stroke="#333333"/>
<line y1="-0.5" x2="20.1094" y2="-0.5" transform="matrix(-0.860418 0.509588 -0.545276 -0.838257 26.8486 25.0495)" stroke="#333333"/>
<line y1="-0.5" x2="18.2222" y2="-0.5" transform="matrix(0.982273 0.187455 -0.205144 0.978732 38.1848 65.4703)" stroke="#333333"/>
</svg>
