<svg width="624" height="527" viewBox="0 0 624 527" fill="none" xmlns="http://www.w3.org/2000/svg">
<rect width="215.846" height="275.829" rx="16" transform="matrix(-0.154011 0.908719 -0.840619 -0.541627 613.628 149.396)" fill="#111015" fill-opacity="0.28"/>
<rect width="215.846" height="275.829" rx="16" transform="matrix(-0.154011 0.908719 -0.840619 -0.541627 567.972 158.772)" fill="#111015" fill-opacity="0.28"/>
<rect width="191.313" height="287.358" rx="23" transform="matrix(-1.02269 0.341752 -0.840619 -0.541627 483.578 377.138)" fill="#5D5C84"/>
<rect width="191.558" height="287.482" rx="23" transform="matrix(-1.02269 0.341752 -0.840619 -0.541627 489.072 374.474)" fill="#5D5C84"/>
<rect width="232.62" height="289.438" rx="20" transform="matrix(-0.152902 0.902176 -0.840619 -0.541627 521.552 165.695)" fill="#5D5C84"/>
<rect width="202.043" height="261.933" rx="16" transform="matrix(-0.152902 0.902176 -0.840619 -0.541627 506.44 170.337)" fill="#111015" fill-opacity="0.49"/>
<rect width="187.709" height="140.916" rx="9" transform="matrix(-0.152902 0.902176 -0.840619 -0.541627 505.251 177.352)" fill="#111015" fill-opacity="0.49"/>
<rect width="90.0595" height="112.596" rx="9" transform="matrix(-0.152902 0.902176 -0.840619 -0.541627 384.177 98.7021)" fill="#111015" fill-opacity="0.49"/>
<rect width="95.1516" height="110.414" rx="9" transform="matrix(-0.152902 0.902176 -0.840619 -0.541627 368.862 182.902)" fill="#111015" fill-opacity="0.49"/>
<rect width="22.6206" height="11.5522" rx="4" transform="matrix(0.820769 0.572988 -0.71458 0.697854 228.717 239.055)" fill="#E8C1F2" fill-opacity="0.6"/>
<rect width="22.6206" height="11.5522" rx="4" transform="matrix(0.820769 0.572988 -0.71458 0.697854 339.44 316.352)" fill="#E8C1F2" fill-opacity="0.6"/>
<rect width="22.6206" height="11.5522" rx="4" transform="matrix(0.820769 0.572988 -0.71458 0.697854 394.801 355.001)" fill="#E8C1F2" fill-opacity="0.6"/>
<rect width="22.6206" height="11.5522" rx="4" transform="matrix(0.820769 0.572988 -0.71458 0.697854 367.121 335.676)" fill="#E8C1F2" fill-opacity="0.6"/>
<rect width="22.6206" height="11.5522" rx="4" transform="matrix(0.820769 0.572988 -0.71458 0.697854 311.759 297.028)" fill="#E8C1F2" fill-opacity="0.6"/>
<rect width="22.6206" height="11.5522" rx="4" transform="matrix(0.820769 0.572988 -0.71458 0.697854 284.079 277.704)" fill="#E8C1F2" fill-opacity="0.6"/>
<rect width="22.6206" height="11.5522" rx="4" transform="matrix(0.820769 0.572988 -0.71458 0.697854 256.398 258.38)" fill="#E8C1F2" fill-opacity="0.6"/>
<rect width="22.6206" height="11.5522" rx="4" transform="matrix(0.820769 0.572988 -0.71458 0.697854 210.259 250.286)" fill="#E8C1F2" fill-opacity="0.6"/>
<rect width="22.6206" height="11.5522" rx="4" transform="matrix(0.820769 0.572988 -0.71458 0.697854 320.982 327.582)" fill="#E8C1F2" fill-opacity="0.6"/>
<rect width="22.6206" height="11.5522" rx="4" transform="matrix(0.820769 0.572988 -0.71458 0.697854 376.343 366.231)" fill="#E8C1F2" fill-opacity="0.6"/>
<rect width="22.6206" height="11.5522" rx="4" transform="matrix(0.820769 0.572988 -0.71458 0.697854 348.662 346.907)" fill="#E8C1F2" fill-opacity="0.6"/>
<rect width="22.6206" height="11.5522" rx="4" transform="matrix(0.820769 0.572988 -0.71458 0.697854 293.301 308.258)" fill="#E8C1F2" fill-opacity="0.6"/>
<rect width="22.6206" height="11.5522" rx="4" transform="matrix(0.820769 0.572988 -0.71458 0.697854 265.62 288.934)" fill="#E8C1F2" fill-opacity="0.6"/>
<rect width="22.6206" height="11.5522" rx="4" transform="matrix(0.820769 0.572988 -0.71458 0.697854 237.94 269.61)" fill="#E8C1F2" fill-opacity="0.6"/>
<rect width="22.6206" height="11.5522" rx="4" transform="matrix(0.820769 0.572988 -0.71458 0.697854 191.801 261.516)" fill="#E8C1F2" fill-opacity="0.6"/>
<rect width="22.6206" height="11.5522" rx="4" transform="matrix(0.820769 0.572988 -0.71458 0.697854 302.523 338.813)" fill="#E8C1F2" fill-opacity="0.6"/>
<rect width="22.6206" height="11.5522" rx="4" transform="matrix(0.820769 0.572988 -0.71458 0.697854 357.885 377.461)" fill="#E8C1F2" fill-opacity="0.6"/>
<rect width="22.6206" height="11.5522" rx="4" transform="matrix(0.820769 0.572988 -0.71458 0.697854 330.204 358.137)" fill="#E8C1F2" fill-opacity="0.6"/>
<rect width="22.6206" height="11.5522" rx="4" transform="matrix(0.820769 0.572988 -0.71458 0.697854 274.843 319.488)" fill="#E8C1F2" fill-opacity="0.6"/>
<rect width="22.6206" height="11.5522" rx="4" transform="matrix(0.820769 0.572988 -0.71458 0.697854 247.162 300.164)" fill="#E8C1F2" fill-opacity="0.6"/>
<rect width="22.6206" height="11.5522" rx="4" transform="matrix(0.820769 0.572988 -0.71458 0.697854 219.481 280.84)" fill="#E8C1F2" fill-opacity="0.6"/>
<rect width="22.6206" height="11.5522" rx="4" transform="matrix(0.820769 0.572988 -0.71458 0.697854 173.342 272.746)" fill="#E8C1F2" fill-opacity="0.6"/>
<rect width="22.6206" height="11.5522" rx="4" transform="matrix(0.820769 0.572988 -0.71458 0.697854 339.426 388.691)" fill="#E8C1F2" fill-opacity="0.6"/>
<rect width="22.6206" height="11.5522" rx="4" transform="matrix(0.820769 0.572988 -0.71458 0.697854 311.746 369.367)" fill="#E8C1F2" fill-opacity="0.6"/>
<rect width="85.6682" height="11.5522" rx="4" transform="matrix(0.820769 0.572988 -0.71458 0.697854 230.759 312.829)" fill="#E8C1F2" fill-opacity="0.6"/>
<rect width="22.6206" height="11.5522" rx="4" transform="matrix(0.820769 0.572988 -0.71458 0.697854 201.023 292.07)" fill="#E8C1F2" fill-opacity="0.6"/>
<rect width="38.674" height="56.7998" rx="9" transform="matrix(-0.953456 0.318615 -0.840619 -0.541627 246.798 356.407)" fill="#2E2E31" fill-opacity="0.55"/>
<path d="M280.985 101.263C288.651 106.264 306.284 114.765 315.484 108.764C324.684 102.764 344.676 117.516 353.522 125.642C357.06 135.331 365.198 156.021 369.444 161.271" stroke="#14FCC4"/>
<path d="M283.838 83.4486C291.505 88.4493 309.138 96.9504 318.338 90.9496C327.537 84.9488 347.529 99.7008 356.375 107.827C359.914 117.516 368.052 138.206 372.298 143.457" stroke="#FC1483"/>
<path d="M271.473 161.271L344.714 203.465" stroke="#14FCC4" stroke-width="3"/>
<path d="M268.432 180.454L310.659 203.972" stroke="#FC1483" stroke-width="3"/>
<path d="M414.295 162.679L449.09 170.558" stroke="#FC1483" stroke-width="3"/>
<ellipse cx="411.784" cy="162.679" rx="3.58707" ry="3.28293" fill="#FC1483"/>
<ellipse cx="449.09" cy="171.215" rx="3.58707" ry="3.28293" fill="#FC1483"/>
<path d="M415.371 170.23L450.166 178.109" stroke="#FC1483" stroke-width="3"/>
<ellipse cx="412.86" cy="170.23" rx="3.58707" ry="3.28293" fill="#FC1483"/>
<ellipse cx="450.166" cy="178.766" rx="3.58707" ry="3.28293" fill="#FC1483"/>
<path d="M416.447 176.796L451.242 184.675" stroke="#FC1483" stroke-width="3"/>
<ellipse cx="413.936" cy="176.796" rx="3.58707" ry="3.28293" fill="#FC1483"/>
<ellipse cx="451.242" cy="185.331" rx="3.58707" ry="3.28293" fill="#FC1483"/>
<path d="M417.523 183.362L452.318 191.241" stroke="#FC1483" stroke-width="3"/>
<ellipse cx="415.012" cy="183.362" rx="3.58707" ry="3.28293" fill="#FC1483"/>
<ellipse cx="452.318" cy="191.897" rx="3.58707" ry="3.28293" fill="#FC1483"/>
<path d="M418.599 189.927L453.394 197.807" stroke="#FC1483" stroke-width="3"/>
<ellipse cx="416.088" cy="189.927" rx="3.58707" ry="3.28293" fill="#FC1483"/>
<ellipse cx="453.394" cy="198.463" rx="3.58707" ry="3.28293" fill="#FC1483"/>
<path d="M410.708 194.524L445.502 202.403" stroke="#FC1483" stroke-width="3"/>
<ellipse cx="408.197" cy="194.524" rx="3.58707" ry="3.28293" fill="#FC1483"/>
<ellipse cx="445.502" cy="203.059" rx="3.58707" ry="3.28293" fill="#FC1483"/>
<path d="M402.816 199.12L437.611 206.999" stroke="#FC1483" stroke-width="3"/>
<ellipse cx="400.305" cy="199.12" rx="3.58707" ry="3.28293" fill="#FC1483"/>
<ellipse cx="437.611" cy="207.655" rx="3.58707" ry="3.28293" fill="#FC1483"/>
<path d="M400.305 205.686L435.1 213.565" stroke="#FC1483" stroke-width="3"/>
<ellipse cx="397.794" cy="205.686" rx="3.58707" ry="3.28293" fill="#FC1483"/>
<ellipse cx="435.1" cy="214.221" rx="3.58707" ry="3.28293" fill="#FC1483"/>
<path d="M408.914 214.878L443.709 222.757" stroke="#FC1483" stroke-width="3"/>
<ellipse cx="406.403" cy="214.878" rx="3.58707" ry="3.28293" fill="#FC1483"/>
<ellipse cx="443.709" cy="223.413" rx="3.58707" ry="3.28293" fill="#FC1483"/>
<path d="M415.371 222.429L450.166 230.308" stroke="#FC1483" stroke-width="3"/>
<ellipse cx="412.86" cy="222.428" rx="3.58707" ry="3.28293" fill="#FC1483"/>
<ellipse cx="450.166" cy="230.964" rx="3.58707" ry="3.28293" fill="#FC1483"/>
<path d="M421.828 229.979L456.622 237.858" stroke="#FC1483" stroke-width="3"/>
<ellipse cx="419.317" cy="229.979" rx="3.58707" ry="3.28293" fill="#FC1483"/>
<ellipse cx="456.622" cy="238.515" rx="3.58707" ry="3.28293" fill="#FC1483"/>
<path d="M428.284 237.53L463.079 245.409" stroke="#FC1483" stroke-width="3"/>
<ellipse cx="425.774" cy="237.53" rx="3.58707" ry="3.28293" fill="#FC1483"/>
<ellipse cx="463.079" cy="246.066" rx="3.58707" ry="3.28293" fill="#FC1483"/>
<path d="M434.741 245.081L469.536 252.96" stroke="#FC1483" stroke-width="3"/>
<ellipse cx="432.23" cy="245.081" rx="3.58707" ry="3.28293" fill="#FC1483"/>
<ellipse cx="469.536" cy="253.616" rx="3.58707" ry="3.28293" fill="#FC1483"/>
<path d="M424.697 251.647L459.492 259.526" stroke="#FC1483" stroke-width="3"/>
<ellipse cx="422.186" cy="251.647" rx="3.58707" ry="3.28293" fill="#FC1483"/>
<ellipse cx="459.492" cy="260.182" rx="3.58707" ry="3.28293" fill="#FC1483"/>
<path d="M414.654 258.212L449.448 266.091" stroke="#FC1483" stroke-width="3"/>
<ellipse cx="412.143" cy="258.212" rx="3.58707" ry="3.28293" fill="#FC1483"/>
<ellipse cx="449.448" cy="266.748" rx="3.58707" ry="3.28293" fill="#FC1483"/>
<path d="M404.61 264.778L439.404 272.657" stroke="#FC1483" stroke-width="3"/>
<ellipse cx="402.099" cy="264.778" rx="3.58707" ry="3.28293" fill="#FC1483"/>
<ellipse cx="439.404" cy="273.314" rx="3.58707" ry="3.28293" fill="#FC1483"/>
<path d="M394.566 271.344L429.361 279.223" stroke="#FC1483" stroke-width="3"/>
<ellipse cx="392.055" cy="271.344" rx="3.58707" ry="3.28293" fill="#FC1483"/>
<ellipse cx="429.361" cy="279.88" rx="3.58707" ry="3.28293" fill="#FC1483"/>
</svg>
